<svg version="1.1" xmlns="http://www.w3.org/2000/svg" viewBox="0 0 287.132509211889 110.13977452140125" width="287.132509211889" height="110.13977452140125">
  <!-- svg-source:excalidraw -->
  
  <defs>
    <style class="style-fonts">
      @font-face {
        font-family: "Virgil";
        src: url("https://excalidraw.com/Virgil.woff2");
      }
      @font-face {
        font-family: "Cascadia";
        src: url("https://excalidraw.com/Cascadia.woff2");
      }
    </style>
  </defs>
  <rect x="0" y="0" width="287.132509211889" height="110.13977452140125" fill="#ffffff"></rect><g transform="translate(27.789636872275935 11.311158005756965) rotate(0 80.20704650878906 38.32418638832826)"><text x="0" y="0" font-family="Virgil, Segoe UI Emoji" font-size="61.318698221325235px" fill="#000000" text-anchor="start" style="white-space: pre;" direction="ltr" dominant-baseline="text-before-edge">Kvenn</text></g><g stroke-linecap="round" transform="translate(10 10) rotate(0 133.5662546059445 45.069887260700625)"><path d="M22.53 0 M22.53 0 C68.49 -0.81, 117.57 0.41, 244.6 0 M22.53 0 C90.28 1.38, 155.9 0.14, 244.6 0 M244.6 0 C258.53 -1.04, 265.23 6.55, 267.13 22.53 M244.6 0 C260.77 0.89, 268.29 7.34, 267.13 22.53 M267.13 22.53 C268.96 37.6, 269.16 51.88, 267.13 67.6 M267.13 22.53 C266.39 37.34, 266.87 51.18, 267.13 67.6 M267.13 67.6 C267.55 84.33, 259.67 89.37, 244.6 90.14 M267.13 67.6 C267.11 82.85, 260.36 92.12, 244.6 90.14 M244.6 90.14 C194.79 88.52, 143.31 89.24, 22.53 90.14 M244.6 90.14 C169.57 89.81, 95.25 90.55, 22.53 90.14 M22.53 90.14 C9.04 92.1, 1.84 80.78, 0 67.6 M22.53 90.14 C9.1 88.65, 0.73 84.03, 0 67.6 M0 67.6 C1.24 57.67, -1.61 45.67, 0 22.53 M0 67.6 C-0.39 58.22, -0.35 47.07, 0 22.53 M0 22.53 C-1.22 9.17, 8.3 1.46, 22.53 0 M0 22.53 C-1.93 6, 8.5 -1.81, 22.53 0" stroke="#000000" stroke-width="1" fill="none"></path></g><g transform="translate(206.33500040543296 28.457099485258027) rotate(0 3.6736647030115392 3.185367611639549)" stroke="none"><path fill="#000000" d="M 1.14,-1.27 Q 1.14,-1.27 2.51,-0.03 3.88,1.19 5.62,2.92 7.36,4.66 7.50,4.82 7.64,4.98 7.72,5.18 7.79,5.38 7.81,5.59 7.82,5.80 7.76,6.01 7.70,6.21 7.58,6.39 7.47,6.56 7.30,6.69 7.13,6.82 6.93,6.89 6.72,6.96 6.51,6.96 6.30,6.96 6.10,6.89 5.90,6.82 5.73,6.69 5.56,6.56 5.44,6.39 5.32,6.21 5.26,6.01 5.21,5.80 5.22,5.59 5.23,5.38 5.31,5.18 5.39,4.98 5.52,4.82 5.66,4.66 5.84,4.55 6.02,4.44 6.23,4.39 6.44,4.35 6.65,4.37 6.86,4.39 7.06,4.48 7.25,4.57 7.40,4.72 7.56,4.87 7.66,5.05 7.76,5.24 7.79,5.45 7.82,5.66 7.79,5.87 7.76,6.08 7.66,6.27 7.56,6.45 7.40,6.60 7.25,6.75 7.06,6.84 6.86,6.93 6.65,6.95 6.44,6.97 6.23,6.93 6.03,6.88 5.84,6.77 5.66,6.66 5.66,6.66 5.66,6.66 3.63,5.20 1.60,3.73 0.23,2.50 -1.14,1.27 -1.27,1.11 -1.41,0.96 -1.50,0.77 -1.60,0.59 -1.65,0.39 -1.69,0.19 -1.69,-0.01 -1.69,-0.21 -1.64,-0.41 -1.59,-0.61 -1.49,-0.79 -1.40,-0.98 -1.26,-1.13 -1.12,-1.28 -0.95,-1.40 -0.78,-1.51 -0.59,-1.59 -0.39,-1.66 -0.19,-1.68 0.01,-1.70 0.21,-1.68 0.42,-1.65 0.61,-1.58 0.80,-1.50 0.97,-1.39 1.14,-1.27 1.14,-1.27 L 1.14,-1.27 Z"></path></g><g transform="translate(215.76407346297572 34.33779143744596) rotate(0 3.1838373057867244 -2.9403459760939654)" stroke="none"><path fill="#000000" d="M -1.21,-1.10 Q -1.21,-1.10 -0.11,-2.30 0.97,-3.49 3.14,-5.06 5.30,-6.62 5.49,-6.72 5.68,-6.83 5.89,-6.86 6.10,-6.90 6.31,-6.86 6.52,-6.83 6.71,-6.73 6.89,-6.63 7.04,-6.48 7.19,-6.33 7.28,-6.13 7.37,-5.94 7.39,-5.73 7.42,-5.52 7.37,-5.31 7.33,-5.10 7.22,-4.92 7.11,-4.74 6.95,-4.60 6.79,-4.46 6.59,-4.38 6.39,-4.30 6.18,-4.29 5.97,-4.28 5.76,-4.33 5.56,-4.39 5.38,-4.51 5.21,-4.62 5.08,-4.79 4.95,-4.96 4.88,-5.16 4.81,-5.36 4.81,-5.58 4.81,-5.79 4.87,-5.99 4.94,-6.19 5.07,-6.36 5.20,-6.53 5.37,-6.65 5.55,-6.77 5.75,-6.83 5.96,-6.89 6.17,-6.88 6.38,-6.87 6.58,-6.79 6.78,-6.71 6.94,-6.57 7.10,-6.44 7.21,-6.26 7.32,-6.07 7.37,-5.87 7.41,-5.66 7.39,-5.45 7.37,-5.24 7.28,-5.04 7.19,-4.85 7.05,-4.70 6.90,-4.54 6.90,-4.54 6.90,-4.54 5.15,-2.91 3.39,-1.29 2.30,-0.09 1.21,1.10 1.06,1.23 0.91,1.36 0.73,1.44 0.55,1.53 0.36,1.58 0.17,1.62 -0.02,1.62 -0.22,1.62 -0.41,1.57 -0.60,1.52 -0.77,1.42 -0.94,1.33 -1.09,1.20 -1.24,1.06 -1.35,0.90 -1.46,0.74 -1.52,0.55 -1.59,0.36 -1.61,0.17 -1.63,-0.02 -1.61,-0.21 -1.58,-0.41 -1.51,-0.59 -1.43,-0.78 -1.32,-0.94 -1.21,-1.10 -1.21,-1.10 L -1.21,-1.10 Z"></path></g><g transform="translate(221.27457051749303 23.434021635056183) rotate(0 -0.6735072743374815 4.5942803936030145)" stroke="none"><path fill="#000000" d="M 1.68,0.30 Q 1.68,0.30 1.36,2.03 1.04,3.76 0.66,6.19 0.29,8.63 0.27,8.84 0.25,9.05 0.17,9.25 0.09,9.45 -0.04,9.60 -0.19,9.76 -0.37,9.87 -0.55,9.97 -0.76,10.01 -0.97,10.06 -1.18,10.03 -1.39,10.00 -1.58,9.91 -1.77,9.81 -1.93,9.66 -2.08,9.51 -2.17,9.32 -2.27,9.13 -2.30,8.92 -2.33,8.71 -2.29,8.50 -2.25,8.29 -2.14,8.11 -2.04,7.92 -1.88,7.78 -1.72,7.64 -1.53,7.55 -1.33,7.47 -1.12,7.45 -0.91,7.43 -0.70,7.48 -0.50,7.53 -0.32,7.65 -0.14,7.76 -0.01,7.93 0.12,8.09 0.19,8.29 0.27,8.49 0.27,8.70 0.28,8.92 0.22,9.12 0.16,9.32 0.03,9.49 -0.08,9.67 -0.25,9.79 -0.42,9.92 -0.63,9.98 -0.83,10.04 -1.04,10.04 -1.25,10.03 -1.45,9.96 -1.65,9.89 -1.82,9.76 -1.99,9.62 -2.10,9.44 -2.22,9.27 -2.27,9.06 -2.32,8.85 -2.32,8.85 -2.32,8.85 -2.32,6.00 -2.31,3.14 -1.99,1.41 -1.68,-0.30 -1.62,-0.50 -1.55,-0.70 -1.45,-0.87 -1.34,-1.05 -1.19,-1.20 -1.05,-1.34 -0.87,-1.45 -0.70,-1.55 -0.50,-1.62 -0.30,-1.68 -0.10,-1.69 0.10,-1.70 0.30,-1.66 0.50,-1.63 0.69,-1.54 0.88,-1.46 1.04,-1.33 1.20,-1.20 1.33,-1.04 1.46,-0.88 1.54,-0.69 1.63,-0.50 1.66,-0.30 1.70,-0.10 1.69,0.10 1.68,0.30 1.68,0.30 L 1.68,0.30 Z"></path></g><g transform="translate(228.25453057489676 25.51676310355822) rotate(0 -0.24491369861242163 2.9403459760939086)" stroke="none"><path fill="#000000" d="M 1.65,0.16 Q 1.65,0.16 1.25,2.78 0.85,5.40 0.81,5.60 0.76,5.81 0.65,5.99 0.53,6.17 0.37,6.31 0.21,6.44 0.01,6.52 -0.18,6.60 -0.39,6.60 -0.61,6.61 -0.81,6.55 -1.01,6.49 -1.19,6.37 -1.36,6.25 -1.49,6.08 -1.62,5.91 -1.68,5.71 -1.75,5.51 -1.74,5.29 -1.74,5.08 -1.67,4.88 -1.60,4.68 -1.47,4.51 -1.34,4.35 -1.16,4.23 -0.98,4.11 -0.78,4.06 -0.57,4.00 -0.36,4.02 -0.15,4.03 0.04,4.11 0.23,4.19 0.39,4.33 0.55,4.47 0.66,4.66 0.77,4.84 0.81,5.05 0.85,5.25 0.83,5.47 0.80,5.68 0.71,5.87 0.62,6.06 0.47,6.21 0.32,6.37 0.14,6.46 -0.04,6.56 -0.25,6.59 -0.46,6.62 -0.67,6.59 -0.88,6.55 -1.07,6.45 -1.25,6.35 -1.40,6.19 -1.54,6.03 -1.63,5.84 -1.72,5.65 -1.74,5.43 -1.76,5.22 -1.76,5.22 -1.76,5.22 -1.71,2.52 -1.65,-0.16 -1.61,-0.36 -1.56,-0.56 -1.47,-0.74 -1.38,-0.92 -1.25,-1.07 -1.12,-1.22 -0.96,-1.34 -0.80,-1.46 -0.61,-1.53 -0.42,-1.61 -0.22,-1.63 -0.03,-1.66 0.16,-1.64 0.36,-1.62 0.55,-1.55 0.74,-1.48 0.91,-1.37 1.08,-1.26 1.21,-1.11 1.35,-0.97 1.45,-0.79 1.54,-0.61 1.59,-0.42 1.65,-0.23 1.65,-0.03 1.65,0.17 1.65,0.17 L 1.65,0.16 Z"></path></g><g transform="translate(229.3566242291638 33.112635287747594) rotate(0 3.6736647030115392 1.715209015183632)" stroke="none"><path fill="#000000" d="M 0.62,-1.59 Q 0.62,-1.59 1.78,-1.13 2.95,-0.67 5.46,0.79 7.98,2.26 8.13,2.42 8.28,2.57 8.37,2.76 8.46,2.95 8.48,3.16 8.51,3.37 8.46,3.58 8.42,3.79 8.31,3.97 8.21,4.16 8.04,4.30 7.88,4.43 7.69,4.52 7.49,4.60 7.28,4.61 7.07,4.62 6.86,4.57 6.66,4.51 6.48,4.40 6.30,4.28 6.17,4.11 6.04,3.94 5.97,3.74 5.90,3.54 5.90,3.33 5.90,3.12 5.96,2.91 6.03,2.71 6.16,2.54 6.28,2.37 6.46,2.25 6.63,2.13 6.84,2.07 7.04,2.01 7.25,2.02 7.47,2.03 7.66,2.11 7.86,2.18 8.02,2.32 8.19,2.46 8.30,2.64 8.41,2.82 8.46,3.03 8.51,3.23 8.49,3.44 8.46,3.66 8.38,3.85 8.29,4.04 8.15,4.20 8.00,4.35 7.81,4.46 7.63,4.56 7.42,4.59 7.21,4.63 7.00,4.60 6.79,4.57 6.60,4.47 6.41,4.37 6.41,4.37 6.41,4.37 4.05,3.44 1.69,2.50 0.53,2.04 -0.62,1.59 -0.80,1.49 -0.98,1.39 -1.14,1.25 -1.29,1.11 -1.40,0.94 -1.52,0.77 -1.59,0.58 -1.66,0.38 -1.68,0.18 -1.70,-0.02 -1.68,-0.22 -1.65,-0.43 -1.57,-0.62 -1.50,-0.81 -1.38,-0.98 -1.26,-1.15 -1.10,-1.28 -0.95,-1.41 -0.76,-1.51 -0.58,-1.60 -0.38,-1.65 -0.18,-1.69 0.02,-1.69 0.22,-1.69 0.42,-1.64 0.62,-1.59 0.62,-1.59 L 0.62,-1.59 Z"></path></g><g transform="translate(238.1734214352703 37.768190279025134) rotate(0 3.612442874504353 -3.369148229889845)" stroke="none"><path fill="#000000" d="M -1.29,-1.13 Q -1.29,-1.13 0.14,-2.78 1.58,-4.44 3.81,-5.97 6.03,-7.50 6.23,-7.59 6.42,-7.69 6.63,-7.72 6.84,-7.74 7.05,-7.70 7.25,-7.66 7.44,-7.56 7.62,-7.45 7.77,-7.29 7.91,-7.14 7.99,-6.94 8.07,-6.75 8.09,-6.53 8.11,-6.32 8.05,-6.12 8.00,-5.91 7.89,-5.73 7.77,-5.55 7.61,-5.42 7.44,-5.29 7.24,-5.21 7.04,-5.14 6.83,-5.14 6.62,-5.13 6.41,-5.19 6.21,-5.26 6.04,-5.38 5.87,-5.51 5.74,-5.68 5.62,-5.85 5.56,-6.06 5.50,-6.26 5.50,-6.47 5.51,-6.68 5.58,-6.88 5.66,-7.08 5.79,-7.25 5.92,-7.41 6.10,-7.53 6.28,-7.64 6.49,-7.69 6.70,-7.74 6.91,-7.72 7.12,-7.71 7.31,-7.62 7.51,-7.54 7.67,-7.39 7.82,-7.25 7.93,-7.07 8.03,-6.88 8.07,-6.67 8.11,-6.46 8.08,-6.25 8.05,-6.04 7.96,-5.85 7.86,-5.66 7.71,-5.51 7.56,-5.36 7.56,-5.36 7.56,-5.36 5.87,-3.77 4.18,-2.17 2.74,-0.52 1.29,1.13 1.14,1.27 0.99,1.41 0.80,1.50 0.62,1.60 0.42,1.65 0.22,1.70 0.01,1.71 -0.19,1.71 -0.39,1.66 -0.59,1.61 -0.78,1.52 -0.96,1.42 -1.12,1.28 -1.28,1.15 -1.40,0.98 -1.52,0.81 -1.59,0.61 -1.67,0.42 -1.69,0.21 -1.72,0.01 -1.70,-0.19 -1.67,-0.39 -1.60,-0.59 -1.53,-0.78 -1.41,-0.96 -1.29,-1.13 -1.29,-1.13 L -1.29,-1.13 Z"></path></g><g transform="translate(246.25548953853212 45.48658287538126) rotate(0 2.4491034057450065 -4.042967322034315)" stroke="none"><path fill="#000000" d="M -1.53,-0.68 Q -1.53,-0.68 -0.75,-2.41 0.01,-4.14 1.76,-6.29 3.51,-8.44 3.67,-8.59 3.82,-8.73 4.02,-8.82 4.21,-8.91 4.42,-8.93 4.63,-8.95 4.84,-8.90 5.05,-8.85 5.23,-8.74 5.41,-8.63 5.54,-8.46 5.68,-8.30 5.76,-8.10 5.83,-7.90 5.84,-7.69 5.85,-7.48 5.79,-7.28 5.73,-7.07 5.61,-6.90 5.49,-6.72 5.32,-6.60 5.15,-6.47 4.95,-6.40 4.74,-6.34 4.53,-6.34 4.32,-6.34 4.12,-6.41 3.92,-6.48 3.75,-6.61 3.58,-6.74 3.47,-6.92 3.35,-7.10 3.29,-7.30 3.24,-7.51 3.25,-7.72 3.27,-7.93 3.35,-8.13 3.43,-8.33 3.57,-8.49 3.71,-8.65 3.89,-8.75 4.08,-8.86 4.28,-8.90 4.49,-8.95 4.70,-8.92 4.91,-8.90 5.10,-8.81 5.30,-8.71 5.45,-8.57 5.60,-8.42 5.70,-8.23 5.80,-8.04 5.83,-7.83 5.86,-7.62 5.82,-7.41 5.79,-7.20 5.69,-7.02 5.58,-6.83 5.58,-6.83 5.58,-6.83 4.33,-4.79 3.08,-2.76 2.30,-1.03 1.53,0.68 1.42,0.86 1.32,1.03 1.18,1.17 1.03,1.32 0.86,1.42 0.69,1.53 0.49,1.59 0.30,1.65 0.10,1.66 -0.09,1.67 -0.29,1.64 -0.49,1.60 -0.68,1.52 -0.86,1.43 -1.02,1.31 -1.18,1.18 -1.31,1.03 -1.43,0.87 -1.52,0.68 -1.60,0.50 -1.64,0.30 -1.67,0.10 -1.66,-0.09 -1.65,-0.30 -1.59,-0.49 -1.53,-0.68 -1.53,-0.68 L -1.53,-0.68 Z"></path></g><g transform="translate(246.13302669272963 43.03629935916672) rotate(0 2.081743651519673 -2.756570155040663)" stroke="none"><path fill="#000000" d="M -1.31,-0.99 Q -1.31,-0.99 0.52,-3.15 2.36,-5.30 2.51,-5.45 2.67,-5.60 2.86,-5.69 3.05,-5.78 3.26,-5.80 3.47,-5.82 3.68,-5.78 3.89,-5.73 4.07,-5.62 4.25,-5.52 4.39,-5.35 4.53,-5.19 4.61,-5.00 4.69,-4.80 4.70,-4.59 4.71,-4.37 4.66,-4.17 4.60,-3.96 4.48,-3.79 4.36,-3.61 4.19,-3.48 4.03,-3.35 3.82,-3.29 3.62,-3.22 3.41,-3.22 3.20,-3.22 3.00,-3.28 2.79,-3.35 2.63,-3.48 2.46,-3.61 2.34,-3.78 2.22,-3.96 2.16,-4.16 2.10,-4.37 2.11,-4.58 2.12,-4.79 2.20,-4.99 2.28,-5.19 2.42,-5.35 2.55,-5.51 2.74,-5.62 2.92,-5.73 3.12,-5.78 3.33,-5.82 3.54,-5.80 3.75,-5.78 3.95,-5.69 4.14,-5.60 4.29,-5.46 4.45,-5.31 4.55,-5.12 4.65,-4.94 4.68,-4.73 4.72,-4.52 4.69,-4.31 4.65,-4.10 4.55,-3.91 4.45,-3.72 4.45,-3.72 4.45,-3.72 2.88,-1.36 1.31,0.99 1.17,1.13 1.04,1.28 0.87,1.38 0.70,1.49 0.51,1.55 0.32,1.61 0.12,1.63 -0.07,1.65 -0.26,1.61 -0.46,1.58 -0.64,1.50 -0.82,1.42 -0.98,1.30 -1.14,1.18 -1.27,1.03 -1.39,0.87 -1.48,0.69 -1.56,0.51 -1.60,0.32 -1.64,0.12 -1.63,-0.07 -1.62,-0.26 -1.57,-0.46 -1.51,-0.65 -1.41,-0.82 -1.31,-0.99 -1.31,-0.99 L -1.31,-0.99 Z"></path></g><g transform="translate(244.41866198422338 43.77138345459173) rotate(0 2.0817436515196874 3.3078928210034064)" stroke="none"><path fill="#000000" d="M 1.37,-0.93 Q 1.37,-0.93 2.04,0.05 2.71,1.03 3.91,3.34 5.11,5.65 5.19,5.85 5.27,6.05 5.29,6.26 5.31,6.47 5.25,6.68 5.20,6.88 5.09,7.06 4.97,7.24 4.80,7.37 4.64,7.50 4.44,7.58 4.24,7.65 4.03,7.65 3.81,7.66 3.61,7.59 3.41,7.53 3.24,7.40 3.06,7.28 2.94,7.11 2.82,6.93 2.76,6.73 2.70,6.53 2.70,6.31 2.71,6.10 2.78,5.90 2.86,5.70 2.99,5.54 3.13,5.37 3.31,5.26 3.49,5.15 3.69,5.10 3.90,5.05 4.11,5.06 4.32,5.08 4.52,5.17 4.71,5.25 4.87,5.40 5.03,5.54 5.13,5.72 5.23,5.91 5.27,6.12 5.31,6.33 5.28,6.54 5.25,6.75 5.16,6.94 5.06,7.13 4.91,7.28 4.76,7.43 4.57,7.52 4.38,7.61 4.17,7.64 3.95,7.67 3.75,7.63 3.54,7.59 3.35,7.48 3.17,7.37 3.03,7.22 2.89,7.06 2.89,7.06 2.89,7.06 1.42,4.98 -0.04,2.90 -0.71,1.92 -1.37,0.93 -1.47,0.75 -1.56,0.57 -1.60,0.38 -1.65,0.18 -1.65,-0.01 -1.65,-0.21 -1.60,-0.40 -1.55,-0.60 -1.45,-0.78 -1.36,-0.95 -1.22,-1.10 -1.09,-1.25 -0.92,-1.36 -0.76,-1.48 -0.57,-1.55 -0.38,-1.62 -0.18,-1.64 0.01,-1.66 0.21,-1.64 0.41,-1.61 0.59,-1.54 0.78,-1.46 0.95,-1.35 1.11,-1.23 1.24,-1.08 1.37,-0.93 1.37,-0.93 L 1.37,-0.93 Z"></path></g><g transform="translate(248.09230749844681 48.794461304793685) rotate(0 0.3673741458163988 1.6539488091002)" stroke="none"><path fill="#000000" d="M 1.61,-0.35 Q 1.61,-0.35 1.65,0.62 1.70,1.61 1.71,1.82 1.72,2.04 1.67,2.24 1.61,2.45 1.49,2.62 1.37,2.80 1.20,2.93 1.03,3.06 0.83,3.12 0.63,3.19 0.42,3.19 0.21,3.19 0.01,3.13 -0.19,3.06 -0.35,2.93 -0.52,2.80 -0.64,2.63 -0.76,2.45 -0.82,2.25 -0.88,2.04 -0.87,1.83 -0.86,1.62 -0.78,1.42 -0.70,1.22 -0.56,1.06 -0.42,0.90 -0.24,0.79 -0.06,0.68 0.14,0.63 0.34,0.59 0.56,0.61 0.77,0.63 0.96,0.72 1.15,0.81 1.31,0.95 1.46,1.10 1.56,1.29 1.66,1.48 1.70,1.69 1.73,1.89 1.70,2.10 1.66,2.31 1.56,2.50 1.46,2.69 1.31,2.84 1.16,2.98 0.96,3.07 0.77,3.16 0.56,3.19 0.35,3.21 0.14,3.16 -0.06,3.12 -0.24,3.01 -0.42,2.90 -0.56,2.74 -0.70,2.58 -0.78,2.38 -0.85,2.18 -0.85,2.18 -0.85,2.18 -1.23,1.27 -1.61,0.35 -1.63,0.16 -1.65,-0.03 -1.62,-0.23 -1.59,-0.43 -1.51,-0.61 -1.44,-0.80 -1.32,-0.96 -1.21,-1.12 -1.05,-1.25 -0.90,-1.38 -0.72,-1.46 -0.54,-1.55 -0.35,-1.60 -0.16,-1.64 0.03,-1.63 0.23,-1.63 0.42,-1.58 0.62,-1.53 0.79,-1.43 0.96,-1.33 1.11,-1.20 1.26,-1.06 1.37,-0.89 1.47,-0.73 1.54,-0.54 1.61,-0.35 1.61,-0.35 L 1.61,-0.35 Z"></path></g><g transform="translate(201.55923725095738 36.7880749536605) rotate(0 1.3470097514779553 1.77645482967597)" stroke="none"><path fill="#000000" d="M 1.34,-0.96 Q 1.34,-0.96 2.40,0.72 3.46,2.41 3.56,2.59 3.67,2.78 3.71,2.99 3.74,3.19 3.71,3.41 3.68,3.62 3.59,3.81 3.49,4.00 3.34,4.14 3.19,4.29 3.00,4.39 2.81,4.48 2.60,4.51 2.39,4.54 2.18,4.50 1.97,4.45 1.79,4.35 1.60,4.24 1.46,4.09 1.32,3.93 1.24,3.73 1.16,3.54 1.14,3.32 1.12,3.11 1.18,2.91 1.23,2.70 1.34,2.52 1.46,2.34 1.62,2.21 1.79,2.08 1.99,2.01 2.19,1.93 2.40,1.93 2.61,1.92 2.82,1.99 3.02,2.05 3.19,2.18 3.36,2.30 3.49,2.47 3.61,2.65 3.67,2.85 3.73,3.05 3.73,3.27 3.72,3.48 3.65,3.68 3.57,3.88 3.44,4.04 3.30,4.21 3.12,4.32 2.94,4.43 2.74,4.48 2.53,4.53 2.32,4.52 2.11,4.50 1.91,4.41 1.72,4.33 1.56,4.18 1.40,4.04 1.40,4.04 1.40,4.04 0.03,2.50 -1.34,0.96 -1.43,0.79 -1.53,0.61 -1.58,0.42 -1.63,0.23 -1.63,0.03 -1.64,-0.16 -1.59,-0.36 -1.55,-0.55 -1.46,-0.73 -1.37,-0.91 -1.24,-1.06 -1.11,-1.21 -0.95,-1.33 -0.79,-1.44 -0.61,-1.52 -0.42,-1.59 -0.22,-1.62 -0.03,-1.65 0.16,-1.63 0.36,-1.61 0.55,-1.54 0.73,-1.47 0.90,-1.36 1.07,-1.25 1.20,-1.11 1.34,-0.96 1.34,-0.96 L 1.34,-0.96 Z"></path></g><g transform="translate(199.4774935994377 37.8907010967979) rotate(0 2.5715662515474804 1.5926838058197745)" stroke="none"><path fill="#000000" d="M 0.74,-1.58 Q 0.74,-1.58 2.01,-0.98 3.28,-0.38 4.63,0.88 5.99,2.16 6.10,2.34 6.21,2.52 6.26,2.72 6.32,2.93 6.30,3.14 6.28,3.35 6.19,3.55 6.11,3.74 5.97,3.90 5.83,4.06 5.64,4.16 5.46,4.27 5.25,4.31 5.04,4.35 4.83,4.32 4.62,4.29 4.43,4.19 4.24,4.10 4.09,3.95 3.94,3.80 3.84,3.60 3.75,3.41 3.72,3.20 3.69,2.99 3.73,2.78 3.77,2.58 3.88,2.39 3.98,2.21 4.14,2.06 4.30,1.92 4.50,1.84 4.69,1.76 4.90,1.74 5.12,1.72 5.32,1.78 5.53,1.83 5.71,1.94 5.89,2.06 6.02,2.22 6.15,2.39 6.22,2.59 6.30,2.79 6.30,3.00 6.31,3.21 6.24,3.42 6.18,3.62 6.06,3.79 5.93,3.96 5.76,4.09 5.59,4.21 5.38,4.27 5.18,4.33 4.97,4.33 4.75,4.32 4.56,4.25 4.36,4.17 4.19,4.04 4.03,3.91 4.03,3.91 4.03,3.91 2.90,3.34 1.78,2.78 0.51,2.18 -0.74,1.58 -0.92,1.47 -1.10,1.35 -1.25,1.20 -1.39,1.05 -1.50,0.87 -1.61,0.68 -1.67,0.48 -1.72,0.28 -1.73,0.07 -1.74,-0.13 -1.70,-0.34 -1.66,-0.55 -1.57,-0.74 -1.48,-0.93 -1.34,-1.09 -1.21,-1.26 -1.04,-1.38 -0.87,-1.51 -0.68,-1.59 -0.49,-1.68 -0.28,-1.71 -0.07,-1.75 0.13,-1.73 0.34,-1.71 0.54,-1.65 0.74,-1.58 0.74,-1.58 L 0.74,-1.58 Z"></path></g><g transform="translate(209.2739312084028 36.7880749536605) rotate(0 1.224556500069525 1.1026261431374564)" stroke="none"><path fill="#000000" d="M 1.17,-1.30 Q 1.17,-1.30 2.02,-0.23 2.88,0.83 3.01,0.99 3.15,1.16 3.22,1.36 3.29,1.56 3.30,1.77 3.30,1.98 3.24,2.18 3.18,2.39 3.05,2.56 2.93,2.73 2.76,2.86 2.58,2.98 2.38,3.04 2.18,3.10 1.96,3.10 1.75,3.09 1.55,3.02 1.35,2.94 1.19,2.81 1.02,2.68 0.91,2.50 0.79,2.32 0.74,2.11 0.69,1.91 0.71,1.69 0.73,1.48 0.81,1.29 0.90,1.09 1.04,0.93 1.18,0.78 1.37,0.67 1.55,0.57 1.76,0.53 1.97,0.49 2.18,0.52 2.39,0.55 2.58,0.64 2.77,0.74 2.92,0.89 3.07,1.04 3.16,1.23 3.26,1.42 3.29,1.63 3.31,1.84 3.27,2.05 3.23,2.26 3.13,2.44 3.02,2.63 2.87,2.77 2.71,2.91 2.51,2.99 2.32,3.08 2.10,3.09 1.89,3.11 1.69,3.06 1.48,3.01 1.30,2.89 1.12,2.78 1.12,2.78 1.12,2.78 -0.02,2.04 -1.17,1.30 -1.31,1.14 -1.45,0.98 -1.54,0.79 -1.64,0.60 -1.69,0.40 -1.74,0.19 -1.73,-0.01 -1.73,-0.22 -1.68,-0.43 -1.63,-0.63 -1.53,-0.82 -1.43,-1.00 -1.29,-1.16 -1.15,-1.32 -0.97,-1.43 -0.80,-1.55 -0.60,-1.63 -0.40,-1.70 -0.19,-1.72 0.01,-1.75 0.22,-1.72 0.43,-1.69 0.63,-1.62 0.82,-1.54 0.99,-1.42 1.17,-1.30 1.17,-1.30 L 1.17,-1.30 Z"></path></g><g transform="translate(206.8248278026578 43.89389427236449) rotate(0 -2.8777065758641243 3.0016061821773974)" stroke="none"><path fill="#000000" d="M 0.44,1.65 Q 0.44,1.65 -0.61,1.93 -1.66,2.21 -2.63,2.94 -3.60,3.67 -3.94,4.71 -4.28,5.76 -4.34,5.96 -4.39,6.17 -4.52,6.34 -4.64,6.52 -4.81,6.64 -4.98,6.77 -5.18,6.84 -5.38,6.90 -5.60,6.90 -5.81,6.90 -6.01,6.83 -6.21,6.76 -6.38,6.63 -6.54,6.50 -6.66,6.32 -6.78,6.14 -6.83,5.94 -6.89,5.73 -6.87,5.52 -6.86,5.31 -6.78,5.11 -6.70,4.91 -6.56,4.75 -6.42,4.59 -6.24,4.48 -6.05,4.38 -5.84,4.33 -5.64,4.29 -5.43,4.32 -5.21,4.34 -5.02,4.43 -4.83,4.52 -4.68,4.67 -4.53,4.82 -4.43,5.01 -4.33,5.20 -4.30,5.41 -4.27,5.62 -4.30,5.83 -4.34,6.04 -4.44,6.22 -4.54,6.41 -4.70,6.55 -4.86,6.70 -5.05,6.79 -5.24,6.87 -5.46,6.89 -5.67,6.91 -5.87,6.87 -6.08,6.82 -6.26,6.71 -6.44,6.59 -6.58,6.43 -6.71,6.27 -6.79,6.07 -6.87,5.87 -6.88,5.66 -6.88,5.45 -6.88,5.45 -6.88,5.45 -5.74,2.69 -4.59,-0.06 -3.57,-0.57 -2.56,-1.08 -1.50,-1.36 -0.44,-1.65 -0.23,-1.68 -0.03,-1.70 0.17,-1.68 0.37,-1.66 0.57,-1.59 0.76,-1.52 0.93,-1.41 1.10,-1.30 1.24,-1.14 1.38,-0.99 1.48,-0.81 1.58,-0.63 1.63,-0.43 1.69,-0.23 1.69,-0.03 1.70,0.17 1.65,0.37 1.60,0.57 1.51,0.75 1.42,0.94 1.29,1.10 1.15,1.25 0.99,1.37 0.82,1.49 0.63,1.57 0.44,1.65 0.44,1.65 L 0.44,1.65 Z"></path></g><g transform="translate(189.4361470890572 51.244744821008226) rotate(0 3.8573457794234542 -0.06124581449233801)" stroke="none"><path fill="#000000" d="M 0,-1.73 Q 0,-1.73 1.68,-1.73 3.37,-1.73 5.31,-1.57 7.25,-1.41 7.46,-1.38 7.67,-1.36 7.87,-1.27 8.06,-1.18 8.21,-1.04 8.37,-0.89 8.47,-0.71 8.57,-0.52 8.60,-0.31 8.64,-0.10 8.61,0.10 8.57,0.31 8.47,0.50 8.37,0.69 8.22,0.83 8.07,0.98 7.87,1.07 7.68,1.16 7.47,1.18 7.26,1.21 7.05,1.16 6.84,1.12 6.66,1.01 6.48,0.90 6.34,0.74 6.20,0.58 6.12,0.38 6.04,0.18 6.03,-0.02 6.02,-0.23 6.08,-0.44 6.13,-0.64 6.25,-0.82 6.37,-1.00 6.54,-1.12 6.71,-1.25 6.91,-1.32 7.11,-1.39 7.32,-1.39 7.53,-1.39 7.74,-1.32 7.94,-1.26 8.11,-1.13 8.28,-1.00 8.40,-0.83 8.52,-0.65 8.57,-0.45 8.63,-0.24 8.62,-0.03 8.61,0.17 8.53,0.37 8.45,0.57 8.32,0.73 8.18,0.89 8.00,1.00 7.82,1.11 7.61,1.16 7.40,1.21 7.40,1.21 7.40,1.21 5.39,1.47 3.37,1.73 1.68,1.73 0,1.73 -0.20,1.71 -0.41,1.68 -0.61,1.61 -0.80,1.53 -0.98,1.42 -1.15,1.30 -1.29,1.14 -1.43,0.98 -1.52,0.80 -1.62,0.61 -1.67,0.41 -1.72,0.20 -1.72,-0.00 -1.72,-0.20 -1.67,-0.41 -1.62,-0.61 -1.52,-0.80 -1.43,-0.98 -1.29,-1.14 -1.15,-1.30 -0.98,-1.42 -0.80,-1.53 -0.61,-1.61 -0.41,-1.68 -0.20,-1.71 0.00,-1.73 0.00,-1.73 L 0,-1.73 Z"></path></g><g transform="translate(191.27298183916147 53.08247424835872) rotate(0 4.8982164058840425 -0.4288070509929298)" stroke="none"><path fill="#000000" d="M -0.21,-1.75 Q -0.21,-1.75 1.75,-1.99 3.72,-2.24 6.50,-1.97 9.28,-1.70 9.49,-1.65 9.70,-1.61 9.88,-1.50 10.06,-1.40 10.20,-1.24 10.34,-1.08 10.42,-0.88 10.51,-0.69 10.52,-0.47 10.54,-0.26 10.48,-0.06 10.43,0.14 10.31,0.32 10.19,0.49 10.03,0.63 9.86,0.76 9.66,0.83 9.46,0.90 9.25,0.90 9.03,0.90 8.83,0.84 8.63,0.77 8.46,0.65 8.29,0.52 8.17,0.35 8.04,0.17 7.98,-0.02 7.92,-0.22 7.93,-0.44 7.94,-0.65 8.02,-0.85 8.09,-1.05 8.23,-1.21 8.36,-1.37 8.54,-1.49 8.72,-1.60 8.93,-1.65 9.14,-1.70 9.35,-1.68 9.56,-1.66 9.75,-1.57 9.95,-1.48 10.11,-1.34 10.26,-1.19 10.36,-1.01 10.47,-0.82 10.50,-0.61 10.54,-0.40 10.51,-0.19 10.48,0.01 10.38,0.20 10.28,0.38 10.13,0.53 9.98,0.68 9.79,0.77 9.60,0.87 9.39,0.89 9.18,0.92 9.18,0.92 9.18,0.92 6.67,1.09 4.16,1.26 2.18,1.50 0.21,1.75 0.00,1.75 -0.20,1.75 -0.41,1.70 -0.62,1.65 -0.80,1.55 -0.99,1.45 -1.15,1.31 -1.31,1.17 -1.43,1.00 -1.56,0.82 -1.63,0.62 -1.71,0.42 -1.74,0.21 -1.76,0.00 -1.74,-0.20 -1.71,-0.41 -1.64,-0.61 -1.56,-0.81 -1.44,-0.99 -1.32,-1.16 -1.16,-1.30 -1.00,-1.45 -0.82,-1.55 -0.63,-1.64 -0.42,-1.70 -0.21,-1.75 -0.21,-1.75 L -0.21,-1.75 Z"></path></g><g transform="translate(193.10980939347021 62.271035035564864) rotate(0 3.6736647030115392 -0.796344301508384)" stroke="none"><path fill="#000000" d="M -0.43,-1.68 Q -0.43,-1.68 1.22,-2.10 2.87,-2.52 4.62,-2.63 6.37,-2.74 6.59,-2.75 6.80,-2.75 7.00,-2.69 7.20,-2.63 7.38,-2.50 7.55,-2.38 7.67,-2.20 7.79,-2.03 7.85,-1.82 7.92,-1.62 7.91,-1.41 7.90,-1.20 7.83,-1.00 7.75,-0.80 7.62,-0.63 7.48,-0.47 7.30,-0.36 7.12,-0.24 6.92,-0.19 6.71,-0.14 6.50,-0.16 6.29,-0.18 6.09,-0.27 5.90,-0.35 5.74,-0.49 5.58,-0.64 5.48,-0.82 5.38,-1.01 5.34,-1.22 5.30,-1.43 5.33,-1.64 5.36,-1.85 5.46,-2.04 5.55,-2.23 5.70,-2.38 5.85,-2.52 6.04,-2.62 6.24,-2.71 6.45,-2.74 6.66,-2.77 6.87,-2.72 7.07,-2.68 7.26,-2.58 7.44,-2.47 7.58,-2.31 7.72,-2.15 7.81,-1.96 7.89,-1.76 7.91,-1.55 7.92,-1.34 7.87,-1.13 7.82,-0.93 7.70,-0.75 7.58,-0.57 7.42,-0.44 7.25,-0.31 7.05,-0.23 6.85,-0.16 6.85,-0.16 6.85,-0.16 5.29,0.33 3.73,0.83 2.08,1.26 0.43,1.68 0.22,1.71 0.01,1.73 -0.19,1.71 -0.40,1.69 -0.59,1.61 -0.79,1.54 -0.96,1.42 -1.14,1.31 -1.28,1.15 -1.42,0.99 -1.52,0.81 -1.62,0.62 -1.67,0.42 -1.72,0.22 -1.72,0.01 -1.72,-0.19 -1.67,-0.39 -1.63,-0.60 -1.53,-0.78 -1.43,-0.97 -1.30,-1.13 -1.16,-1.29 -0.99,-1.41 -0.82,-1.53 -0.62,-1.60 -0.43,-1.68 -0.43,-1.68 L -0.43,-1.68 Z"></path></g><g transform="translate(203.15115830244923 60.80086684471496) rotate(0 0.7959605257459401 3.736680683208249)" stroke="none"><path fill="#000000" d="M 1.71,0.19 Q 1.71,0.19 1.57,1.43 1.42,2.67 2.19,4.46 2.95,6.24 3.04,6.44 3.13,6.63 3.16,6.84 3.18,7.05 3.14,7.26 3.09,7.47 2.98,7.65 2.88,7.83 2.71,7.97 2.55,8.11 2.36,8.19 2.16,8.27 1.95,8.28 1.74,8.29 1.53,8.24 1.32,8.18 1.15,8.07 0.97,7.95 0.84,7.78 0.71,7.61 0.64,7.41 0.57,7.21 0.57,7.00 0.57,6.78 0.64,6.58 0.70,6.38 0.83,6.21 0.96,6.04 1.13,5.92 1.31,5.80 1.51,5.74 1.72,5.68 1.93,5.69 2.14,5.70 2.34,5.78 2.54,5.86 2.70,5.99 2.86,6.13 2.97,6.31 3.09,6.49 3.13,6.70 3.18,6.91 3.16,7.12 3.14,7.33 3.05,7.52 2.96,7.72 2.82,7.87 2.67,8.03 2.48,8.13 2.30,8.23 2.09,8.27 1.88,8.30 1.67,8.27 1.46,8.23 1.27,8.14 1.08,8.04 0.93,7.88 0.79,7.73 0.79,7.73 0.79,7.73 -0.59,5.06 -1.99,2.39 -1.85,1.10 -1.71,-0.19 -1.66,-0.39 -1.61,-0.59 -1.52,-0.77 -1.42,-0.96 -1.29,-1.12 -1.15,-1.27 -0.98,-1.39 -0.81,-1.51 -0.62,-1.59 -0.42,-1.66 -0.22,-1.69 -0.01,-1.72 0.18,-1.70 0.39,-1.67 0.59,-1.60 0.78,-1.53 0.95,-1.41 1.12,-1.30 1.26,-1.14 1.40,-0.99 1.50,-0.81 1.60,-0.62 1.65,-0.42 1.70,-0.22 1.71,-0.01 1.71,0.19 1.71,0.19 L 1.71,0.19 Z"></path></g><g transform="translate(199.11013384521237 73.41982647350028) rotate(0 3.4287486058006067 -1.9602210563352287)" stroke="none"><path fill="#000000" d="M -0.77,-1.50 Q -0.77,-1.50 0.67,-2.24 2.11,-2.98 3.78,-3.79 5.45,-4.59 5.64,-4.67 5.84,-4.75 6.05,-4.77 6.26,-4.78 6.47,-4.73 6.68,-4.67 6.85,-4.55 7.03,-4.44 7.16,-4.27 7.29,-4.10 7.36,-3.90 7.43,-3.70 7.43,-3.49 7.43,-3.27 7.37,-3.07 7.30,-2.87 7.17,-2.70 7.05,-2.53 6.87,-2.41 6.70,-2.29 6.49,-2.23 6.29,-2.17 6.08,-2.18 5.87,-2.19 5.67,-2.27 5.47,-2.34 5.31,-2.48 5.14,-2.61 5.03,-2.80 4.92,-2.98 4.87,-3.18 4.82,-3.39 4.85,-3.60 4.87,-3.81 4.95,-4.01 5.04,-4.20 5.19,-4.36 5.33,-4.51 5.52,-4.61 5.70,-4.72 5.91,-4.75 6.12,-4.79 6.33,-4.76 6.54,-4.72 6.73,-4.63 6.92,-4.53 7.07,-4.37 7.22,-4.22 7.31,-4.03 7.40,-3.84 7.42,-3.63 7.45,-3.42 7.40,-3.21 7.36,-3.00 7.25,-2.82 7.14,-2.63 6.98,-2.49 6.82,-2.36 6.82,-2.36 6.82,-2.36 5.24,-1.16 3.66,0.02 2.21,0.76 0.77,1.50 0.58,1.57 0.38,1.64 0.18,1.67 -0.01,1.69 -0.21,1.66 -0.42,1.64 -0.61,1.56 -0.80,1.49 -0.96,1.37 -1.13,1.25 -1.27,1.10 -1.40,0.94 -1.49,0.76 -1.59,0.58 -1.63,0.38 -1.68,0.18 -1.68,-0.01 -1.68,-0.22 -1.62,-0.41 -1.57,-0.61 -1.48,-0.79 -1.38,-0.97 -1.24,-1.12 -1.11,-1.27 -0.94,-1.39 -0.77,-1.50 -0.77,-1.50 L -0.77,-1.50 Z"></path></g><g transform="translate(199.84486294805706 75.62507875977519) rotate(0 2.2041969029281177 -1.2251369609102767)" stroke="none"><path fill="#000000" d="M -0.82,-1.48 Q -0.82,-1.48 1.07,-2.31 2.97,-3.15 3.17,-3.22 3.37,-3.29 3.58,-3.30 3.79,-3.30 4.00,-3.24 4.20,-3.17 4.37,-3.05 4.54,-2.92 4.67,-2.75 4.79,-2.58 4.85,-2.37 4.91,-2.17 4.90,-1.96 4.90,-1.75 4.82,-1.55 4.75,-1.35 4.61,-1.18 4.48,-1.02 4.30,-0.91 4.12,-0.79 3.91,-0.74 3.70,-0.69 3.49,-0.71 3.28,-0.73 3.09,-0.82 2.89,-0.90 2.73,-1.04 2.58,-1.19 2.47,-1.37 2.37,-1.56 2.33,-1.77 2.29,-1.98 2.32,-2.19 2.35,-2.40 2.45,-2.59 2.55,-2.78 2.70,-2.93 2.85,-3.08 3.04,-3.17 3.23,-3.26 3.44,-3.29 3.65,-3.32 3.86,-3.27 4.07,-3.23 4.25,-3.13 4.44,-3.02 4.58,-2.86 4.72,-2.70 4.80,-2.51 4.88,-2.31 4.90,-2.10 4.92,-1.89 4.86,-1.68 4.81,-1.47 4.69,-1.30 4.58,-1.12 4.41,-0.99 4.24,-0.85 4.24,-0.85 4.25,-0.85 2.53,0.31 0.82,1.48 0.63,1.55 0.44,1.63 0.24,1.66 0.04,1.69 -0.16,1.67 -0.36,1.65 -0.55,1.58 -0.75,1.51 -0.92,1.40 -1.09,1.29 -1.23,1.14 -1.37,0.99 -1.47,0.81 -1.57,0.63 -1.62,0.44 -1.67,0.24 -1.68,0.04 -1.68,-0.16 -1.64,-0.36 -1.59,-0.56 -1.50,-0.74 -1.41,-0.92 -1.28,-1.08 -1.15,-1.24 -0.98,-1.36 -0.82,-1.48 -0.82,-1.48 L -0.82,-1.48 Z"></path></g><g transform="translate(204.4981680539272 83.34348095052542) rotate(0 2.44911300013905 -3.307888023806413)" stroke="none"><path fill="#000000" d="M -1.37,-0.99 Q -1.37,-0.99 -0.10,-2.75 1.15,-4.51 2.29,-5.68 3.42,-6.85 3.58,-7.00 3.73,-7.14 3.93,-7.23 4.12,-7.32 4.33,-7.34 4.54,-7.36 4.75,-7.32 4.96,-7.27 5.14,-7.16 5.32,-7.05 5.46,-6.89 5.59,-6.73 5.67,-6.53 5.75,-6.33 5.76,-6.12 5.77,-5.91 5.71,-5.70 5.66,-5.50 5.54,-5.32 5.42,-5.15 5.25,-5.02 5.08,-4.89 4.88,-4.82 4.68,-4.76 4.46,-4.76 4.25,-4.76 4.05,-4.82 3.85,-4.89 3.68,-5.02 3.51,-5.15 3.39,-5.33 3.27,-5.50 3.22,-5.71 3.16,-5.91 3.17,-6.13 3.18,-6.34 3.26,-6.53 3.34,-6.73 3.48,-6.89 3.62,-7.06 3.80,-7.16 3.98,-7.27 4.19,-7.32 4.40,-7.36 4.61,-7.34 4.82,-7.32 5.01,-7.23 5.21,-7.14 5.36,-6.99 5.51,-6.84 5.61,-6.66 5.71,-6.47 5.75,-6.26 5.78,-6.05 5.74,-5.84 5.71,-5.63 5.61,-5.44 5.51,-5.25 5.51,-5.25 5.51,-5.25 4.71,-3.89 3.91,-2.53 2.64,-0.77 1.37,0.99 1.23,1.14 1.09,1.29 0.92,1.40 0.75,1.51 0.56,1.58 0.37,1.65 0.16,1.67 -0.03,1.69 -0.23,1.66 -0.43,1.63 -0.62,1.56 -0.81,1.48 -0.98,1.36 -1.14,1.24 -1.28,1.09 -1.41,0.93 -1.50,0.75 -1.59,0.56 -1.64,0.37 -1.68,0.17 -1.68,-0.03 -1.67,-0.23 -1.62,-0.43 -1.57,-0.63 -1.47,-0.81 -1.37,-0.99 -1.37,-0.99 L -1.37,-0.99 Z"></path></g><g transform="translate(209.7637538084306 78.81045596580873) rotate(0 0.9184185743514064 -1.34764777868304)" stroke="none"><path fill="#000000" d="M -1.40,-0.95 Q -1.40,-0.95 -0.71,-1.62 -0.02,-2.28 0.11,-2.44 0.26,-2.59 0.45,-2.69 0.63,-2.79 0.84,-2.82 1.05,-2.86 1.26,-2.82 1.47,-2.79 1.66,-2.69 1.85,-2.59 1.99,-2.43 2.14,-2.28 2.23,-2.09 2.32,-1.89 2.34,-1.68 2.36,-1.47 2.32,-1.26 2.27,-1.06 2.16,-0.87 2.05,-0.69 1.89,-0.55 1.73,-0.42 1.53,-0.34 1.33,-0.26 1.12,-0.25 0.91,-0.24 0.70,-0.30 0.50,-0.35 0.32,-0.47 0.15,-0.59 0.02,-0.76 -0.10,-0.93 -0.17,-1.13 -0.24,-1.34 -0.23,-1.55 -0.23,-1.76 -0.17,-1.96 -0.10,-2.16 0.02,-2.33 0.15,-2.50 0.33,-2.62 0.50,-2.74 0.71,-2.79 0.91,-2.85 1.12,-2.84 1.34,-2.83 1.53,-2.75 1.73,-2.67 1.89,-2.53 2.05,-2.39 2.16,-2.21 2.27,-2.03 2.32,-1.82 2.36,-1.61 2.34,-1.40 2.32,-1.19 2.23,-1.00 2.14,-0.80 2.14,-0.81 2.14,-0.81 1.77,0.07 1.40,0.95 1.26,1.10 1.13,1.26 0.96,1.37 0.79,1.49 0.60,1.56 0.41,1.64 0.21,1.66 0.01,1.69 -0.19,1.67 -0.39,1.64 -0.58,1.57 -0.77,1.50 -0.94,1.39 -1.11,1.27 -1.25,1.12 -1.38,0.97 -1.48,0.79 -1.58,0.61 -1.63,0.41 -1.68,0.21 -1.68,0.00 -1.68,-0.19 -1.63,-0.39 -1.58,-0.59 -1.49,-0.77 -1.40,-0.95 -1.40,-0.95 L -1.40,-0.95 Z"></path></g><g transform="translate(212.45777331138652 76.60520367953382) rotate(0 3.979807425926708 0.9801153253646362)" stroke="none"><path fill="#000000" d="M 0.49,-1.63 Q 0.49,-1.63 2.00,-1.17 3.52,-0.72 5.55,-0.07 7.58,0.57 7.78,0.63 7.98,0.70 8.15,0.83 8.32,0.96 8.44,1.13 8.56,1.31 8.62,1.51 8.68,1.71 8.67,1.93 8.66,2.14 8.58,2.34 8.50,2.53 8.36,2.70 8.23,2.86 8.05,2.97 7.86,3.08 7.66,3.13 7.45,3.17 7.24,3.15 7.03,3.13 6.83,3.04 6.64,2.95 6.49,2.81 6.33,2.66 6.23,2.47 6.13,2.29 6.09,2.08 6.06,1.87 6.09,1.66 6.13,1.45 6.23,1.26 6.32,1.07 6.48,0.93 6.63,0.78 6.82,0.69 7.02,0.60 7.23,0.57 7.44,0.55 7.65,0.60 7.85,0.64 8.04,0.75 8.22,0.86 8.36,1.02 8.50,1.18 8.57,1.38 8.65,1.57 8.67,1.79 8.68,2.00 8.62,2.20 8.57,2.41 8.45,2.59 8.33,2.76 8.16,2.89 7.99,3.02 7.79,3.09 7.59,3.16 7.38,3.16 7.17,3.16 7.17,3.16 7.17,3.16 4.85,2.85 2.53,2.55 1.01,2.09 -0.49,1.63 -0.68,1.55 -0.87,1.47 -1.03,1.34 -1.19,1.21 -1.32,1.05 -1.45,0.89 -1.54,0.70 -1.62,0.52 -1.66,0.31 -1.70,0.11 -1.69,-0.08 -1.68,-0.29 -1.62,-0.49 -1.56,-0.68 -1.45,-0.86 -1.35,-1.04 -1.20,-1.18 -1.06,-1.33 -0.88,-1.44 -0.71,-1.55 -0.51,-1.61 -0.32,-1.67 -0.11,-1.69 0.08,-1.70 0.29,-1.67 0.49,-1.63 0.49,-1.63 L 0.49,-1.63 Z"></path></g><g transform="translate(221.6419398661124 76.85024450386754) rotate(0 0.06121942990867524 4.594275596406021)" stroke="none"><path fill="#000000" d="M 1.58,0.55 Q 1.58,0.55 1.30,1.35 1.02,2.16 0.99,3.59 0.95,5.02 1.54,6.65 2.12,8.28 2.18,8.49 2.24,8.69 2.23,8.90 2.23,9.11 2.15,9.31 2.08,9.51 1.95,9.68 1.81,9.84 1.63,9.96 1.45,10.07 1.25,10.12 1.04,10.17 0.83,10.15 0.62,10.13 0.42,10.05 0.23,9.96 0.07,9.82 -0.08,9.68 -0.18,9.49 -0.29,9.31 -0.33,9.10 -0.36,8.89 -0.33,8.68 -0.31,8.47 -0.21,8.28 -0.12,8.09 0.03,7.94 0.18,7.79 0.37,7.70 0.56,7.60 0.77,7.58 0.98,7.55 1.19,7.59 1.40,7.63 1.58,7.74 1.77,7.84 1.91,8.00 2.05,8.16 2.13,8.35 2.21,8.55 2.23,8.76 2.25,8.97 2.20,9.18 2.14,9.38 2.03,9.56 1.91,9.74 1.75,9.87 1.58,10.01 1.38,10.08 1.18,10.15 0.97,10.16 0.76,10.16 0.55,10.10 0.35,10.04 0.18,9.91 0.01,9.79 -0.11,9.61 -0.23,9.44 -0.23,9.44 -0.23,9.44 -1.37,6.79 -2.51,4.15 -2.33,2.61 -2.15,1.07 -1.86,0.26 -1.58,-0.55 -1.49,-0.73 -1.40,-0.91 -1.27,-1.07 -1.14,-1.22 -0.98,-1.34 -0.82,-1.46 -0.63,-1.54 -0.44,-1.61 -0.24,-1.65 -0.04,-1.68 0.15,-1.66 0.35,-1.64 0.54,-1.57 0.73,-1.50 0.90,-1.39 1.07,-1.28 1.21,-1.14 1.35,-0.99 1.45,-0.81 1.55,-0.63 1.60,-0.44 1.66,-0.24 1.66,-0.04 1.67,0.15 1.63,0.35 1.58,0.55 1.58,0.55 L 1.58,0.55 Z"></path></g><g transform="translate(222.74403352037945 79.79058088556746) rotate(0 -0.6735072743374957 3.3691386354957444)" stroke="none"><path fill="#000000" d="M 1.62,0.35 Q 1.62,0.35 0.89,3.35 0.15,6.35 0.09,6.55 0.02,6.76 -0.09,6.93 -0.22,7.10 -0.39,7.22 -0.56,7.35 -0.77,7.41 -0.97,7.47 -1.18,7.46 -1.39,7.45 -1.59,7.38 -1.79,7.30 -1.96,7.17 -2.12,7.04 -2.23,6.86 -2.35,6.68 -2.40,6.47 -2.45,6.26 -2.43,6.05 -2.41,5.84 -2.33,5.64 -2.24,5.45 -2.10,5.29 -1.95,5.14 -1.77,5.03 -1.58,4.93 -1.37,4.89 -1.16,4.85 -0.95,4.88 -0.74,4.91 -0.55,5.01 -0.36,5.10 -0.22,5.25 -0.07,5.41 0.02,5.60 0.11,5.79 0.14,6.00 0.16,6.21 0.12,6.42 0.08,6.63 -0.01,6.81 -0.12,6.99 -0.28,7.14 -0.44,7.28 -0.63,7.36 -0.83,7.44 -1.04,7.46 -1.25,7.47 -1.46,7.42 -1.67,7.37 -1.84,7.25 -2.02,7.14 -2.15,6.97 -2.29,6.80 -2.36,6.60 -2.43,6.40 -2.43,6.19 -2.44,5.98 -2.44,5.98 -2.44,5.98 -2.03,2.81 -1.62,-0.35 -1.56,-0.54 -1.49,-0.73 -1.38,-0.89 -1.27,-1.06 -1.13,-1.20 -0.98,-1.34 -0.81,-1.44 -0.63,-1.53 -0.44,-1.59 -0.24,-1.64 -0.04,-1.65 0.15,-1.65 0.34,-1.61 0.54,-1.57 0.72,-1.48 0.90,-1.39 1.06,-1.26 1.21,-1.14 1.33,-0.97 1.45,-0.81 1.52,-0.63 1.60,-0.44 1.63,-0.24 1.66,-0.04 1.64,0.15 1.62,0.35 1.62,0.35 L 1.62,0.35 Z"></path></g><g transform="translate(230.70364837223283 76.97274572724632) rotate(0 -0.6735120715345175 4.778056214656317)" stroke="none"><path fill="#000000" d="M 1.67,0.27 Q 1.67,0.27 1.42,1.78 1.18,3.30 1.00,4.43 0.83,5.56 0.46,7.29 0.09,9.01 0.14,9.22 0.18,9.43 0.15,9.64 0.12,9.85 0.03,10.04 -0.05,10.23 -0.20,10.39 -0.35,10.54 -0.54,10.63 -0.73,10.73 -0.94,10.76 -1.15,10.79 -1.36,10.75 -1.57,10.71 -1.76,10.61 -1.94,10.50 -2.09,10.35 -2.23,10.19 -2.31,9.99 -2.40,9.80 -2.42,9.59 -2.44,9.38 -2.39,9.17 -2.34,8.96 -2.22,8.78 -2.11,8.60 -1.94,8.47 -1.78,8.34 -1.58,8.26 -1.38,8.19 -1.17,8.18 -0.96,8.17 -0.75,8.23 -0.55,8.29 -0.38,8.42 -0.20,8.54 -0.08,8.71 0.04,8.88 0.10,9.09 0.16,9.29 0.16,9.50 0.16,9.71 0.08,9.91 0.01,10.11 -0.11,10.28 -0.24,10.45 -0.42,10.56 -0.60,10.68 -0.81,10.73 -1.01,10.78 -1.22,10.77 -1.44,10.75 -1.63,10.67 -1.83,10.59 -1.99,10.44 -2.14,10.30 -2.25,10.12 -2.36,9.94 -2.36,9.94 -2.36,9.94 -2.43,7.49 -2.51,5.04 -2.34,3.90 -2.16,2.75 -1.91,1.24 -1.67,-0.27 -1.61,-0.46 -1.55,-0.66 -1.45,-0.84 -1.35,-1.01 -1.21,-1.16 -1.07,-1.31 -0.89,-1.42 -0.72,-1.53 -0.53,-1.59 -0.33,-1.66 -0.13,-1.67 0.06,-1.69 0.27,-1.66 0.47,-1.62 0.65,-1.54 0.84,-1.46 1.01,-1.34 1.17,-1.22 1.30,-1.06 1.43,-0.90 1.52,-0.72 1.60,-0.53 1.64,-0.33 1.68,-0.13 1.68,0.06 1.67,0.27 1.67,0.27 L 1.67,0.27 Z"></path></g><g transform="translate(229.11172732074095 81.01574662965993) rotate(0 0.24490650281688886 3.9817023187538325)" stroke="none"><path fill="#000000" d="M 1.65,-0.03 Q 1.65,-0.03 1.68,1.62 1.72,3.27 1.72,5.31 1.73,7.35 1.72,7.56 1.72,7.78 1.64,7.98 1.57,8.17 1.43,8.34 1.30,8.51 1.12,8.62 0.94,8.73 0.74,8.78 0.53,8.83 0.32,8.82 0.11,8.80 -0.08,8.71 -0.27,8.63 -0.43,8.49 -0.59,8.34 -0.69,8.16 -0.80,7.97 -0.84,7.76 -0.88,7.56 -0.85,7.35 -0.82,7.14 -0.72,6.95 -0.63,6.76 -0.48,6.61 -0.33,6.46 -0.13,6.36 0.05,6.27 0.26,6.24 0.47,6.21 0.68,6.25 0.88,6.29 1.07,6.40 1.25,6.50 1.39,6.66 1.54,6.82 1.62,7.02 1.70,7.21 1.72,7.42 1.74,7.64 1.68,7.84 1.63,8.05 1.52,8.23 1.40,8.41 1.24,8.54 1.07,8.67 0.87,8.74 0.67,8.82 0.46,8.82 0.25,8.83 0.04,8.76 -0.15,8.70 -0.32,8.57 -0.49,8.45 -0.62,8.28 -0.74,8.10 -0.80,7.90 -0.86,7.70 -0.86,7.70 -0.86,7.70 -1.22,5.52 -1.58,3.34 -1.61,1.69 -1.65,0.03 -1.63,-0.16 -1.61,-0.36 -1.54,-0.54 -1.47,-0.73 -1.36,-0.90 -1.25,-1.06 -1.11,-1.20 -0.96,-1.33 -0.79,-1.43 -0.61,-1.53 -0.42,-1.58 -0.23,-1.63 -0.03,-1.63 0.16,-1.64 0.35,-1.60 0.55,-1.55 0.73,-1.46 0.90,-1.37 1.06,-1.25 1.21,-1.12 1.32,-0.95 1.44,-0.79 1.52,-0.61 1.59,-0.42 1.62,-0.23 1.65,-0.03 1.65,-0.03 L 1.65,-0.03 Z"></path></g><g transform="translate(230.58118552643035 79.3005184256881) rotate(0 6.000314857348101 -2.143992080191481)" stroke="none"><path fill="#000000" d="M -0.55,-1.57 Q -0.55,-1.57 0.75,-2.02 2.05,-2.48 3.16,-2.83 4.27,-3.17 5.32,-3.46 6.36,-3.75 8.70,-4.50 11.04,-5.25 11.24,-5.32 11.44,-5.40 11.65,-5.40 11.86,-5.41 12.07,-5.35 12.27,-5.29 12.44,-5.16 12.61,-5.04 12.74,-4.87 12.86,-4.70 12.93,-4.49 12.99,-4.29 12.98,-4.08 12.98,-3.86 12.91,-3.67 12.83,-3.47 12.70,-3.30 12.57,-3.13 12.39,-3.02 12.21,-2.90 12.01,-2.85 11.80,-2.80 11.59,-2.82 11.38,-2.83 11.18,-2.92 10.99,-3.00 10.83,-3.14 10.67,-3.28 10.56,-3.47 10.46,-3.65 10.42,-3.86 10.38,-4.07 10.40,-4.28 10.43,-4.49 10.53,-4.68 10.62,-4.87 10.77,-5.02 10.92,-5.17 11.11,-5.27 11.30,-5.36 11.51,-5.39 11.72,-5.42 11.93,-5.38 12.14,-5.34 12.32,-5.24 12.51,-5.13 12.65,-4.98 12.79,-4.82 12.88,-4.62 12.96,-4.43 12.98,-4.22 13.00,-4.01 12.95,-3.80 12.90,-3.59 12.78,-3.41 12.67,-3.23 12.50,-3.10 12.34,-2.97 12.34,-2.97 12.34,-2.97 10.73,-2.02 9.12,-1.07 7.19,-0.53 5.26,0.00 4.20,0.33 3.15,0.65 1.85,1.11 0.55,1.57 0.35,1.61 0.16,1.65 -0.04,1.65 -0.24,1.64 -0.43,1.59 -0.62,1.54 -0.80,1.44 -0.97,1.34 -1.12,1.21 -1.27,1.07 -1.38,0.90 -1.49,0.73 -1.56,0.54 -1.62,0.35 -1.64,0.15 -1.66,-0.04 -1.63,-0.23 -1.60,-0.43 -1.53,-0.62 -1.45,-0.81 -1.33,-0.97 -1.21,-1.13 -1.06,-1.26 -0.91,-1.39 -0.73,-1.48 -0.55,-1.57 -0.55,-1.57 L -0.55,-1.57 Z"></path></g><g transform="translate(240.98989418963467 75.01253426530513) rotate(0 3.245078323082012 1.8377102385624084)" stroke="none"><path fill="#000000" d="M 1.03,-1.28 Q 1.03,-1.28 1.95,-0.54 2.86,0.19 4.74,1.22 6.62,2.25 6.80,2.36 6.98,2.48 7.12,2.64 7.25,2.81 7.33,3.00 7.40,3.20 7.41,3.42 7.42,3.63 7.36,3.83 7.30,4.04 7.17,4.21 7.05,4.38 6.88,4.51 6.71,4.63 6.51,4.70 6.30,4.76 6.09,4.76 5.88,4.76 5.68,4.68 5.48,4.61 5.31,4.48 5.14,4.35 5.03,4.17 4.91,3.99 4.86,3.79 4.81,3.58 4.82,3.37 4.84,3.16 4.92,2.96 5.00,2.77 5.14,2.61 5.28,2.45 5.46,2.34 5.65,2.24 5.86,2.19 6.06,2.15 6.28,2.18 6.49,2.20 6.68,2.30 6.87,2.39 7.02,2.54 7.17,2.69 7.27,2.88 7.36,3.07 7.40,3.28 7.43,3.49 7.39,3.70 7.35,3.90 7.25,4.09 7.14,4.28 6.99,4.42 6.83,4.56 6.64,4.65 6.44,4.74 6.23,4.75 6.02,4.77 5.81,4.72 5.61,4.68 5.61,4.68 5.61,4.68 3.20,3.72 0.79,2.76 -0.11,2.02 -1.03,1.28 -1.17,1.14 -1.31,0.99 -1.41,0.82 -1.51,0.65 -1.57,0.46 -1.62,0.27 -1.63,0.07 -1.64,-0.12 -1.60,-0.31 -1.56,-0.51 -1.48,-0.69 -1.40,-0.87 -1.27,-1.03 -1.15,-1.18 -0.99,-1.30 -0.83,-1.42 -0.65,-1.50 -0.46,-1.58 -0.27,-1.61 -0.07,-1.65 0.12,-1.63 0.32,-1.62 0.51,-1.55 0.70,-1.49 0.86,-1.39 1.03,-1.28 1.03,-1.28 L 1.03,-1.28 Z"></path></g><g transform="translate(239.39799232693093 75.25753671206269) rotate(0 2.755236534266075 2.0214908568127044)" stroke="none"><path fill="#000000" d="M 1.25,-1.07 Q 1.25,-1.07 2.06,-0.11 2.87,0.83 4.17,1.77 5.46,2.70 5.66,2.77 5.87,2.83 6.04,2.96 6.21,3.08 6.33,3.26 6.45,3.43 6.51,3.64 6.57,3.84 6.57,4.05 6.56,4.26 6.48,4.46 6.41,4.66 6.27,4.83 6.14,4.99 5.96,5.10 5.78,5.22 5.57,5.26 5.36,5.31 5.15,5.29 4.94,5.27 4.75,5.19 4.55,5.10 4.40,4.96 4.24,4.82 4.14,4.63 4.03,4.44 4.00,4.24 3.96,4.03 3.99,3.82 4.02,3.61 4.12,3.42 4.21,3.23 4.36,3.08 4.52,2.93 4.71,2.84 4.90,2.74 5.11,2.72 5.32,2.69 5.53,2.73 5.74,2.78 5.92,2.88 6.10,2.99 6.24,3.15 6.39,3.31 6.47,3.50 6.55,3.70 6.56,3.91 6.58,4.12 6.53,4.33 6.47,4.53 6.36,4.71 6.24,4.89 6.07,5.02 5.91,5.15 5.71,5.22 5.51,5.30 5.29,5.30 5.08,5.30 5.08,5.30 5.08,5.30 2.72,4.14 0.36,2.97 -0.44,2.02 -1.25,1.07 -1.36,0.90 -1.47,0.73 -1.54,0.55 -1.61,0.36 -1.63,0.16 -1.65,-0.03 -1.62,-0.22 -1.59,-0.42 -1.52,-0.61 -1.44,-0.79 -1.33,-0.95 -1.21,-1.11 -1.06,-1.24 -0.91,-1.37 -0.73,-1.46 -0.55,-1.55 -0.36,-1.59 -0.16,-1.64 0.03,-1.63 0.23,-1.63 0.42,-1.58 0.61,-1.53 0.79,-1.43 0.96,-1.34 1.11,-1.20 1.25,-1.07 1.25,-1.07 L 1.25,-1.07 Z"></path></g><g transform="translate(242.58181524112655 74.3999513932589) rotate(0 1.7756057258015403 -4.410518964140863)" stroke="none"><path fill="#000000" d="M -1.42,-0.79 Q -1.42,-0.79 -0.93,-1.68 -0.44,-2.56 0.22,-3.62 0.88,-4.68 1.55,-6.62 2.21,-8.56 2.26,-8.76 2.31,-8.97 2.42,-9.15 2.53,-9.33 2.69,-9.47 2.86,-9.61 3.06,-9.68 3.25,-9.76 3.47,-9.77 3.68,-9.78 3.88,-9.72 4.09,-9.66 4.26,-9.54 4.44,-9.42 4.56,-9.25 4.69,-9.08 4.76,-8.88 4.82,-8.68 4.82,-8.46 4.82,-8.25 4.75,-8.05 4.68,-7.85 4.55,-7.68 4.42,-7.51 4.24,-7.40 4.07,-7.28 3.86,-7.22 3.66,-7.17 3.44,-7.18 3.23,-7.19 3.04,-7.27 2.84,-7.35 2.68,-7.49 2.52,-7.63 2.41,-7.82 2.30,-8.00 2.26,-8.21 2.21,-8.41 2.24,-8.63 2.26,-8.84 2.35,-9.03 2.44,-9.22 2.59,-9.37 2.74,-9.53 2.93,-9.62 3.12,-9.72 3.33,-9.76 3.54,-9.79 3.75,-9.75 3.95,-9.72 4.14,-9.61 4.33,-9.51 4.47,-9.36 4.62,-9.20 4.71,-9.01 4.79,-8.82 4.81,-8.60 4.84,-8.39 4.84,-8.39 4.84,-8.39 4.27,-5.71 3.70,-3.02 3.06,-1.99 2.41,-0.96 1.92,-0.08 1.42,0.79 1.31,0.95 1.19,1.11 1.04,1.24 0.89,1.37 0.71,1.45 0.53,1.54 0.34,1.58 0.15,1.63 -0.04,1.62 -0.24,1.61 -0.43,1.56 -0.62,1.51 -0.79,1.41 -0.96,1.32 -1.11,1.18 -1.25,1.05 -1.36,0.88 -1.46,0.72 -1.53,0.53 -1.59,0.34 -1.61,0.15 -1.63,-0.04 -1.60,-0.23 -1.57,-0.43 -1.50,-0.61 -1.42,-0.79 -1.42,-0.79 L -1.42,-0.79 Z"></path></g><g transform="translate(245.5207508412934 69.49938436082982) rotate(0 1.3470145486749914 -4.042972119231365)" stroke="none"><path fill="#000000" d="M -1.54,-0.57 Q -1.54,-0.57 -1.12,-1.70 -0.70,-2.83 -0.23,-4.15 0.22,-5.48 0.80,-6.87 1.38,-8.27 1.46,-8.46 1.54,-8.66 1.68,-8.82 1.82,-8.98 2.01,-9.09 2.19,-9.20 2.40,-9.24 2.60,-9.28 2.82,-9.26 3.03,-9.24 3.22,-9.14 3.41,-9.05 3.56,-8.91 3.72,-8.76 3.81,-8.57 3.91,-8.38 3.94,-8.17 3.98,-7.96 3.94,-7.75 3.91,-7.54 3.80,-7.36 3.70,-7.17 3.55,-7.02 3.39,-6.88 3.20,-6.79 3.01,-6.70 2.79,-6.68 2.58,-6.66 2.38,-6.71 2.17,-6.76 1.99,-6.87 1.81,-6.98 1.67,-7.14 1.53,-7.31 1.46,-7.50 1.38,-7.70 1.37,-7.91 1.36,-8.13 1.42,-8.33 1.48,-8.53 1.60,-8.71 1.72,-8.88 1.89,-9.01 2.06,-9.14 2.26,-9.20 2.46,-9.27 2.68,-9.27 2.89,-9.27 3.09,-9.20 3.29,-9.13 3.46,-9.00 3.63,-8.87 3.74,-8.69 3.86,-8.51 3.92,-8.31 3.97,-8.10 3.96,-7.89 3.94,-7.68 3.94,-7.68 3.94,-7.68 3.66,-6.08 3.37,-4.48 2.88,-3.08 2.39,-1.67 1.96,-0.54 1.54,0.57 1.45,0.75 1.36,0.93 1.23,1.08 1.10,1.23 0.93,1.34 0.77,1.45 0.58,1.53 0.40,1.60 0.20,1.62 0.00,1.65 -0.19,1.62 -0.38,1.60 -0.57,1.53 -0.76,1.46 -0.92,1.35 -1.09,1.24 -1.22,1.09 -1.35,0.94 -1.44,0.76 -1.54,0.59 -1.59,0.39 -1.63,0.20 -1.63,0.00 -1.64,-0.19 -1.59,-0.38 -1.54,-0.57 -1.54,-0.57 L -1.54,-0.57 Z"></path></g><g transform="translate(246.25548953853212 69.62190477299669) rotate(0 3.3062953543921765 1.1638767548268447)" stroke="none"><path fill="#000000" d="M 0.81,-1.40 Q 0.81,-1.40 1.72,-0.87 2.64,-0.34 4.38,0.19 6.12,0.73 6.33,0.70 6.54,0.68 6.75,0.72 6.96,0.77 7.14,0.88 7.32,0.99 7.46,1.15 7.60,1.31 7.68,1.50 7.76,1.70 7.77,1.91 7.79,2.13 7.73,2.33 7.67,2.54 7.56,2.71 7.44,2.89 7.27,3.02 7.10,3.15 6.90,3.22 6.70,3.29 6.49,3.29 6.27,3.29 6.07,3.22 5.87,3.16 5.70,3.03 5.53,2.90 5.41,2.73 5.29,2.55 5.23,2.35 5.17,2.14 5.18,1.93 5.19,1.72 5.27,1.52 5.35,1.32 5.49,1.16 5.62,1.00 5.80,0.89 5.99,0.77 6.19,0.73 6.40,0.68 6.61,0.70 6.82,0.72 7.02,0.81 7.21,0.90 7.36,1.05 7.52,1.19 7.62,1.38 7.72,1.57 7.76,1.77 7.79,1.98 7.76,2.19 7.73,2.40 7.63,2.59 7.53,2.78 7.38,2.93 7.22,3.07 7.03,3.16 6.84,3.26 6.84,3.26 6.84,3.26 3.93,2.86 1.01,2.46 0.10,1.93 -0.81,1.40 -0.96,1.28 -1.12,1.17 -1.24,1.01 -1.37,0.86 -1.45,0.69 -1.53,0.51 -1.57,0.32 -1.61,0.13 -1.60,-0.06 -1.60,-0.26 -1.54,-0.44 -1.49,-0.63 -1.39,-0.80 -1.29,-0.97 -1.16,-1.11 -1.02,-1.25 -0.86,-1.36 -0.69,-1.46 -0.51,-1.52 -0.32,-1.58 -0.12,-1.60 0.06,-1.62 0.25,-1.59 0.45,-1.55 0.63,-1.48 0.81,-1.40 0.81,-1.40 L 0.81,-1.40 Z"></path></g><g transform="translate(246.50038644695496 72.68474237807527) rotate(0 3.0613936487723095 0.857604507591816)" stroke="none"><path fill="#000000" d="M 0.43,-1.62 Q 0.43,-1.62 1.48,-1.34 2.54,-1.06 4.34,-0.35 6.14,0.35 6.33,0.44 6.52,0.53 6.68,0.68 6.83,0.83 6.92,1.02 7.02,1.21 7.05,1.42 7.08,1.63 7.05,1.84 7.01,2.05 6.91,2.23 6.81,2.42 6.65,2.56 6.49,2.71 6.30,2.79 6.11,2.88 5.89,2.90 5.68,2.92 5.48,2.87 5.27,2.82 5.09,2.71 4.91,2.60 4.77,2.43 4.64,2.27 4.56,2.07 4.49,1.87 4.48,1.66 4.47,1.45 4.53,1.25 4.59,1.04 4.71,0.87 4.83,0.69 5.00,0.57 5.17,0.44 5.37,0.38 5.58,0.31 5.79,0.31 6.00,0.32 6.20,0.39 6.40,0.46 6.57,0.59 6.74,0.72 6.85,0.90 6.97,1.07 7.03,1.28 7.08,1.49 7.06,1.70 7.05,1.91 6.97,2.11 6.89,2.30 6.75,2.46 6.61,2.62 6.42,2.73 6.24,2.84 6.03,2.88 5.82,2.92 5.61,2.90 5.40,2.87 5.40,2.87 5.40,2.87 3.54,2.53 1.67,2.18 0.62,1.90 -0.43,1.62 -0.62,1.54 -0.80,1.47 -0.97,1.35 -1.13,1.23 -1.26,1.08 -1.40,0.92 -1.49,0.74 -1.58,0.56 -1.62,0.36 -1.67,0.17 -1.66,-0.03 -1.66,-0.23 -1.61,-0.43 -1.55,-0.62 -1.46,-0.80 -1.36,-0.98 -1.22,-1.13 -1.09,-1.27 -0.92,-1.39 -0.75,-1.50 -0.56,-1.57 -0.37,-1.63 -0.16,-1.65 0.03,-1.68 0.23,-1.65 0.43,-1.62 0.43,-1.62 L 0.43,-1.62 Z"></path></g><g transform="translate(251.643528544444 60.433324797002456) rotate(0 4.04102925443388 0.3675420477124476)" stroke="none"><path fill="#000000" d="M 0,-1.63 Q 0,-1.63 1.37,-1.63 2.74,-1.63 5.45,-0.94 8.15,-0.25 8.34,-0.15 8.53,-0.06 8.68,0.09 8.83,0.24 8.92,0.43 9.01,0.62 9.04,0.83 9.07,1.04 9.03,1.25 8.98,1.46 8.88,1.64 8.77,1.83 8.61,1.97 8.46,2.11 8.26,2.19 8.06,2.27 7.85,2.29 7.64,2.30 7.43,2.25 7.23,2.20 7.05,2.08 6.87,1.97 6.74,1.80 6.61,1.64 6.54,1.44 6.46,1.24 6.46,1.02 6.45,0.81 6.52,0.61 6.58,0.41 6.71,0.23 6.83,0.06 7.00,-0.05 7.18,-0.17 7.38,-0.23 7.59,-0.30 7.80,-0.29 8.01,-0.28 8.21,-0.21 8.41,-0.13 8.57,-0.00 8.74,0.13 8.85,0.31 8.96,0.49 9.01,0.69 9.06,0.90 9.05,1.11 9.03,1.32 8.94,1.52 8.86,1.71 8.71,1.87 8.57,2.03 8.39,2.13 8.20,2.23 7.99,2.27 7.78,2.31 7.57,2.28 7.36,2.25 7.36,2.25 7.36,2.25 5.05,1.94 2.74,1.63 1.37,1.63 0,1.63 -0.19,1.61 -0.39,1.58 -0.57,1.51 -0.76,1.44 -0.92,1.33 -1.08,1.22 -1.21,1.07 -1.34,0.93 -1.43,0.75 -1.53,0.58 -1.57,0.38 -1.62,0.19 -1.62,-0.00 -1.62,-0.19 -1.57,-0.38 -1.53,-0.58 -1.43,-0.75 -1.34,-0.93 -1.21,-1.07 -1.08,-1.22 -0.92,-1.33 -0.76,-1.44 -0.57,-1.51 -0.39,-1.58 -0.19,-1.61 0.00,-1.63 0.00,-1.63 L 0,-1.63 Z"></path></g><g transform="translate(252.62317374449958 60.80086684471496) rotate(0 0.8571823542531334 0)" stroke="none"><path fill="#000000" d="M 1.59,-0.49 Q 1.59,-0.49 1.61,-0.09 1.63,0.30 1.47,0.66 1.31,1.02 0.99,1.27 0.68,1.51 0.29,1.59 -0.10,1.66 -0.48,1.54 -0.86,1.42 -1.14,1.14 -1.42,0.86 -1.54,0.48 -1.66,0.10 -1.59,-0.29 -1.51,-0.68 -1.27,-0.99 -1.02,-1.31 -0.66,-1.47 -0.30,-1.63 0.09,-1.61 0.49,-1.59 0.83,-1.38 1.17,-1.17 1.38,-0.83 L 1.59,-0.49 Z"></path></g><g transform="translate(252.37825764728865 54.6751628513756) rotate(0 2.9389308029698356 -1.7764548296760267)" stroke="none"><path fill="#000000" d="M -1.06,-1.28 Q -1.06,-1.28 -0.04,-2.12 0.97,-2.97 3.07,-3.82 5.16,-4.68 5.37,-4.72 5.58,-4.77 5.79,-4.75 6.00,-4.72 6.19,-4.63 6.39,-4.54 6.54,-4.40 6.69,-4.25 6.79,-4.06 6.89,-3.88 6.93,-3.67 6.96,-3.46 6.93,-3.25 6.89,-3.04 6.79,-2.85 6.69,-2.66 6.54,-2.52 6.38,-2.37 6.19,-2.28 6.00,-2.19 5.78,-2.17 5.57,-2.15 5.37,-2.19 5.16,-2.24 4.98,-2.35 4.79,-2.46 4.66,-2.62 4.52,-2.78 4.44,-2.98 4.36,-3.18 4.35,-3.39 4.34,-3.60 4.40,-3.81 4.46,-4.01 4.58,-4.19 4.69,-4.36 4.86,-4.49 5.03,-4.62 5.24,-4.69 5.44,-4.75 5.65,-4.75 5.86,-4.75 6.06,-4.69 6.26,-4.62 6.43,-4.49 6.60,-4.36 6.72,-4.18 6.84,-4.01 6.90,-3.80 6.95,-3.60 6.94,-3.39 6.93,-3.17 6.85,-2.98 6.77,-2.78 6.63,-2.62 6.49,-2.46 6.31,-2.35 6.13,-2.24 6.13,-2.24 6.13,-2.24 4.61,-1.32 3.10,-0.40 2.08,0.43 1.06,1.28 0.89,1.39 0.72,1.50 0.53,1.56 0.34,1.63 0.14,1.64 -0.05,1.66 -0.25,1.63 -0.45,1.60 -0.63,1.52 -0.82,1.44 -0.98,1.32 -1.14,1.20 -1.27,1.05 -1.40,0.90 -1.48,0.71 -1.57,0.53 -1.61,0.34 -1.65,0.14 -1.65,-0.05 -1.64,-0.25 -1.59,-0.44 -1.53,-0.64 -1.43,-0.81 -1.33,-0.99 -1.20,-1.13 -1.06,-1.28 -1.06,-1.28 L -1.06,-1.28 Z"></path></g><g transform="translate(250.78634619019084 54.552642439208626) rotate(0 3.122610680082495 -0.0612554088863817)" stroke="none"><path fill="#000000" d="M -0.03,-1.69 Q -0.03,-1.69 2.83,-1.56 5.70,-1.42 5.91,-1.39 6.12,-1.36 6.31,-1.26 6.50,-1.17 6.65,-1.02 6.80,-0.86 6.89,-0.67 6.98,-0.48 7.01,-0.27 7.04,-0.06 6.99,0.14 6.95,0.35 6.85,0.53 6.74,0.71 6.58,0.85 6.42,0.99 6.22,1.08 6.03,1.16 5.82,1.17 5.60,1.19 5.40,1.14 5.19,1.08 5.01,0.97 4.84,0.85 4.71,0.68 4.57,0.52 4.50,0.32 4.43,0.12 4.43,-0.08 4.42,-0.30 4.49,-0.50 4.55,-0.70 4.68,-0.87 4.80,-1.05 4.98,-1.17 5.15,-1.29 5.35,-1.35 5.56,-1.41 5.77,-1.40 5.98,-1.40 6.18,-1.32 6.38,-1.25 6.54,-1.11 6.71,-0.98 6.82,-0.80 6.93,-0.62 6.98,-0.41 7.03,-0.20 7.01,0.00 6.99,0.21 6.91,0.40 6.82,0.60 6.68,0.76 6.54,0.91 6.35,1.02 6.16,1.12 5.96,1.16 5.75,1.20 5.75,1.20 5.75,1.19 2.89,1.44 0.03,1.69 -0.16,1.67 -0.37,1.65 -0.56,1.58 -0.75,1.51 -0.92,1.40 -1.09,1.29 -1.23,1.14 -1.37,0.99 -1.47,0.81 -1.57,0.63 -1.62,0.43 -1.67,0.23 -1.68,0.03 -1.68,-0.16 -1.64,-0.36 -1.59,-0.56 -1.50,-0.75 -1.41,-0.93 -1.28,-1.08 -1.15,-1.24 -0.98,-1.36 -0.81,-1.48 -0.62,-1.56 -0.43,-1.63 -0.23,-1.66 -0.03,-1.69 -0.03,-1.69 L -0.03,-1.69 Z"></path></g><g transform="translate(214.17215241148386 45.364072057608496) rotate(0 10.408711061802833 11.393827465072093)" stroke="none"><path fill="#000000" d="M 1.46,0.82 Q 1.46,0.82 1.00,1.63 0.54,2.44 0.10,3.56 -0.33,4.67 -0.63,5.71 -0.94,6.75 -0.97,7.94 -1.00,9.12 -1.01,10.37 -1.01,11.62 -1.01,12.99 -1.01,14.36 -0.62,15.46 -0.23,16.56 0.28,17.50 0.80,18.44 1.62,19.35 2.43,20.26 3.60,20.98 4.76,21.70 5.88,21.93 6.99,22.15 8.06,22.18 9.13,22.20 10.22,22.05 11.32,21.90 12.37,21.64 13.42,21.37 14.49,20.79 15.56,20.21 16.42,19.43 17.29,18.66 18.13,17.65 18.96,16.64 19.70,15.83 20.44,15.03 20.97,13.98 21.51,12.94 21.66,11.86 21.81,10.79 21.77,9.46 21.73,8.12 21.49,7.08 21.25,6.05 20.55,5.13 19.86,4.21 18.85,3.44 17.84,2.66 16.82,2.19 15.80,1.72 14.65,1.37 13.51,1.03 12.25,0.81 11.00,0.59 9.71,0.58 8.42,0.57 7.01,0.57 5.60,0.57 3.34,0.89 1.07,1.21 0.86,1.20 0.65,1.18 0.45,1.10 0.26,1.02 0.10,0.88 -0.05,0.74 -0.16,0.56 -0.27,0.37 -0.31,0.16 -0.35,-0.03 -0.33,-0.24 -0.30,-0.46 -0.21,-0.65 -0.11,-0.84 0.02,-0.99 0.17,-1.14 0.36,-1.24 0.55,-1.33 0.76,-1.37 0.97,-1.40 1.18,-1.36 1.39,-1.32 1.58,-1.22 1.76,-1.11 1.91,-0.96 2.05,-0.80 2.14,-0.61 2.22,-0.41 2.24,-0.20 2.26,0.00 2.21,0.21 2.16,0.41 2.05,0.59 1.94,0.77 1.77,0.91 1.61,1.04 1.41,1.12 1.21,1.19 1.00,1.20 0.79,1.21 0.58,1.15 0.38,1.09 0.21,0.97 0.03,0.85 -0.08,0.67 -0.21,0.50 -0.27,0.30 -0.34,0.10 -0.34,-0.10 -0.33,-0.32 -0.26,-0.52 -0.19,-0.72 -0.06,-0.88 0.06,-1.05 0.24,-1.17 0.42,-1.28 0.63,-1.34 0.83,-1.39 0.83,-1.39 0.83,-1.39 3.22,-2.08 5.60,-2.78 6.67,-2.78 7.73,-2.78 9.08,-2.77 10.44,-2.77 11.67,-2.69 12.91,-2.61 14.00,-2.30 15.09,-2.00 16.42,-1.54 17.75,-1.09 18.85,-0.55 19.95,-0.01 21.05,0.87 22.16,1.76 22.86,2.59 23.56,3.41 24.14,4.49 24.73,5.56 24.91,6.80 25.09,8.04 25.13,9.33 25.18,10.62 25.03,11.86 24.88,13.10 24.41,14.33 23.93,15.56 23.32,16.54 22.71,17.52 21.89,18.41 21.06,19.30 20.37,20.17 19.67,21.03 18.90,21.78 18.12,22.52 17.05,23.24 15.98,23.95 14.90,24.35 13.81,24.74 12.56,25.06 11.30,25.37 10.21,25.47 9.11,25.56 7.80,25.52 6.48,25.47 5.31,25.26 4.13,25.06 2.98,24.54 1.83,24.02 0.93,23.32 0.03,22.61 -0.75,21.76 -1.54,20.91 -2.30,19.69 -3.07,18.47 -3.56,17.25 -4.05,16.02 -4.21,14.57 -4.37,13.12 -4.37,11.94 -4.37,10.77 -4.36,9.54 -4.36,8.32 -4.29,7.15 -4.21,5.98 -3.85,4.75 -3.49,3.52 -2.93,2.15 -2.37,0.79 -1.92,-0.01 -1.46,-0.82 -1.34,-0.98 -1.22,-1.15 -1.06,-1.28 -0.91,-1.41 -0.72,-1.50 -0.54,-1.58 -0.34,-1.63 -0.15,-1.67 0.05,-1.66 0.25,-1.66 0.44,-1.60 0.64,-1.55 0.82,-1.45 0.99,-1.35 1.14,-1.21 1.29,-1.07 1.40,-0.90 1.51,-0.73 1.57,-0.54 1.64,-0.35 1.66,-0.14 1.67,0.05 1.64,0.25 1.61,0.45 1.54,0.63 1.46,0.82 1.46,0.82 L 1.46,0.82 Z"></path></g><g transform="translate(216.37634931441198 45.11904082766887) rotate(0 10.714860980513535 9.86239427094165)" stroke="none"><path fill="#000000" d="M -0.81,-1.58 Q -0.81,-1.58 0.55,-2.28 1.93,-2.99 3.43,-3.61 4.93,-4.23 6.27,-4.35 7.61,-4.47 8.94,-4.39 10.28,-4.31 11.63,-3.90 12.98,-3.50 14.16,-2.75 15.33,-1.99 16.22,-1.24 17.11,-0.49 18.00,0.50 18.90,1.51 19.64,2.53 20.38,3.56 21.05,4.68 21.72,5.80 22.19,7.16 22.66,8.52 22.91,9.67 23.16,10.81 23.12,12.14 23.08,13.47 22.90,14.71 22.72,15.94 22.40,17.05 22.08,18.16 21.56,19.17 21.05,20.19 20.28,20.92 19.50,21.65 18.35,22.37 17.19,23.09 14.84,23.35 12.49,23.61 12.29,23.54 12.09,23.46 11.92,23.33 11.76,23.20 11.64,23.03 11.52,22.85 11.47,22.64 11.41,22.44 11.43,22.23 11.44,22.01 11.52,21.82 11.61,21.62 11.75,21.46 11.88,21.30 12.07,21.19 12.25,21.09 12.46,21.04 12.67,21.00 12.88,21.03 13.09,21.05 13.28,21.14 13.47,21.24 13.63,21.38 13.78,21.53 13.87,21.72 13.97,21.91 14.00,22.12 14.03,22.33 14.00,22.54 13.96,22.75 13.86,22.94 13.76,23.12 13.60,23.27 13.44,23.41 13.25,23.50 13.06,23.58 12.84,23.60 12.63,23.62 12.43,23.57 12.22,23.53 12.04,23.41 11.86,23.30 11.72,23.14 11.59,22.97 11.51,22.78 11.44,22.58 11.43,22.37 11.42,22.15 11.48,21.95 11.54,21.74 11.66,21.57 11.78,21.40 11.95,21.27 12.12,21.14 12.32,21.08 12.53,21.01 12.74,21.02 12.95,21.02 12.95,21.02 12.95,21.02 14.26,20.47 15.58,19.91 16.51,19.33 17.43,18.76 18.07,17.87 18.71,16.98 19.02,15.93 19.32,14.88 19.48,13.81 19.65,12.75 19.57,11.60 19.50,10.46 19.18,9.37 18.85,8.28 18.36,7.22 17.87,6.17 17.09,5.08 16.30,3.99 15.59,3.13 14.88,2.28 14.02,1.55 13.15,0.81 12.07,0.17 10.98,-0.47 9.68,-0.69 8.37,-0.91 7.19,-0.87 6.01,-0.83 4.78,-0.32 3.55,0.17 2.18,0.88 0.81,1.58 0.61,1.65 0.41,1.73 0.19,1.75 -0.01,1.78 -0.22,1.75 -0.44,1.72 -0.64,1.64 -0.84,1.56 -1.01,1.44 -1.19,1.32 -1.33,1.16 -1.47,0.99 -1.57,0.80 -1.67,0.61 -1.72,0.40 -1.77,0.19 -1.76,-0.01 -1.76,-0.23 -1.71,-0.43 -1.65,-0.64 -1.55,-0.83 -1.45,-1.02 -1.31,-1.18 -1.16,-1.34 -0.99,-1.46 -0.81,-1.58 -0.81,-1.58 L -0.81,-1.58 Z"></path></g></svg>